<svg width="70" height="69" viewBox="0 0 70 69" fill="none" xmlns="http://www.w3.org/2000/svg">
<rect x="0.5" width="69" height="69" rx="20" fill="black"/>
<path d="M18.6175 47.7082C16.7774 47.7082 15.2856 46.2164 15.2856 44.3763C15.2856 43.6717 15.509 42.9853 15.9236 42.4156L24.0068 31.3098C26.1692 28.3388 24.047 24.1693 20.3723 24.1693H18.1048C16.8745 24.1693 15.8771 23.1719 15.8771 21.9416C15.8771 20.7112 16.8745 19.7139 18.1048 19.7139H32.1074C33.9444 19.7139 35.4336 21.2031 35.4336 23.0401C35.4336 23.7481 35.2078 24.4376 34.7888 25.0084L27.0964 35.4882C24.7315 38.7101 27.0321 43.2527 31.0287 43.2527H33.6791C34.9094 43.2527 35.9068 44.2501 35.9068 45.4804C35.9068 46.7108 34.9094 47.7082 33.6791 47.7082H18.6175Z" fill="url(#paint0_linear_730_7163)"/>
<path d="M38.0096 47.7082C36.5942 47.7082 35.4468 46.5607 35.4468 45.1453V24.7139C35.4468 21.9524 37.6854 19.7139 40.4468 19.7139H46.2896C49.5754 19.7139 52.1382 20.5024 53.9782 22.0796C55.8182 23.6567 56.7382 25.8384 56.7382 28.6247C56.7382 30.491 56.3176 32.1076 55.4765 33.4744C54.6354 34.815 53.4394 35.8402 51.8885 36.5499C50.3376 37.2596 48.4714 37.6144 46.2896 37.6144H45.5725C42.8111 37.6144 40.5725 39.853 40.5725 42.6144V45.1453C40.5725 46.5607 39.4251 47.7082 38.0096 47.7082ZM40.5725 28.6642C40.5725 31.1466 42.5849 33.159 45.0674 33.159H46.0531C47.7879 33.159 49.1154 32.7779 50.0354 32.0156C50.9816 31.2533 51.4548 30.123 51.4548 28.6247C51.4548 27.1527 50.9816 26.0487 50.0354 25.3127C49.1154 24.5504 47.7879 24.1693 46.0531 24.1693H45.0674C42.5849 24.1693 40.5725 26.1817 40.5725 28.6642Z" fill="url(#paint1_linear_730_7163)"/>
<defs>
<linearGradient id="paint0_linear_730_7163" x1="19.0568" y1="19.7139" x2="52.967" y2="47.7082" gradientUnits="userSpaceOnUse">
<stop stop-color="white"/>
<stop offset="1" stop-color="#6750A4"/>
</linearGradient>
<linearGradient id="paint1_linear_730_7163" x1="19.0568" y1="19.7139" x2="52.967" y2="47.7082" gradientUnits="userSpaceOnUse">
<stop stop-color="white"/>
<stop offset="1" stop-color="#6750A4"/>
</linearGradient>
</defs>
</svg>
