<svg width="55" height="43" viewBox="0 0 55 43" fill="none" xmlns="http://www.w3.org/2000/svg">
<path d="M4.01525 31.764L2.61125 35.64H5.46725L4.06325 31.764H4.01525ZM1.39925 39H0.17525L3.41525 30.408H4.66325L7.90325 39H6.67925L5.85125 36.672H2.23925L1.39925 39ZM11.1831 38.184C11.7271 38.184 12.1711 37.988 12.5151 37.596C12.8751 37.204 13.0551 36.692 13.0551 36.06C13.0551 35.444 12.8751 34.936 12.5151 34.536C12.1631 34.136 11.7191 33.936 11.1831 33.936C10.6551 33.936 10.2111 34.136 9.85109 34.536C9.49109 34.936 9.31109 35.444 9.31109 36.06C9.31109 36.684 9.49109 37.192 9.85109 37.584C10.2111 37.984 10.6551 38.184 11.1831 38.184ZM11.0031 39.192C10.2351 39.192 9.57509 38.888 9.02309 38.28C8.47909 37.664 8.20709 36.924 8.20709 36.06C8.20709 35.196 8.47909 34.456 9.02309 33.84C9.57509 33.232 10.2351 32.928 11.0031 32.928C11.4351 32.928 11.8271 33.02 12.1791 33.204C12.5391 33.388 12.8151 33.632 13.0071 33.936H13.0551L13.0071 33.12V30.408H14.1111V39H13.0551V38.184H13.0071C12.8151 38.488 12.5391 38.732 12.1791 38.916C11.8271 39.1 11.4351 39.192 11.0031 39.192ZM18.0386 38.184C18.5826 38.184 19.0266 37.988 19.3706 37.596C19.7306 37.204 19.9106 36.692 19.9106 36.06C19.9106 35.444 19.7306 34.936 19.3706 34.536C19.0186 34.136 18.5746 33.936 18.0386 33.936C17.5106 33.936 17.0666 34.136 16.7066 34.536C16.3466 34.936 16.1666 35.444 16.1666 36.06C16.1666 36.684 16.3466 37.192 16.7066 37.584C17.0666 37.984 17.5106 38.184 18.0386 38.184ZM17.8586 39.192C17.0906 39.192 16.4306 38.888 15.8786 38.28C15.3346 37.664 15.0626 36.924 15.0626 36.06C15.0626 35.196 15.3346 34.456 15.8786 33.84C16.4306 33.232 17.0906 32.928 17.8586 32.928C18.2906 32.928 18.6826 33.02 19.0346 33.204C19.3946 33.388 19.6706 33.632 19.8626 33.936H19.9106L19.8626 33.12V30.408H20.9666V39H19.9106V38.184H19.8626C19.6706 38.488 19.3946 38.732 19.0346 38.916C18.6826 39.1 18.2906 39.192 17.8586 39.192ZM27.8293 38.184C28.3573 38.184 28.8013 37.984 29.1613 37.584C29.5213 37.192 29.7013 36.684 29.7013 36.06C29.7013 35.444 29.5213 34.936 29.1613 34.536C28.8013 34.136 28.3573 33.936 27.8293 33.936C27.2933 33.936 26.8453 34.136 26.4853 34.536C26.1333 34.936 25.9573 35.444 25.9573 36.06C25.9573 36.684 26.1333 37.196 26.4853 37.596C26.8453 37.988 27.2933 38.184 27.8293 38.184ZM28.0093 39.192C27.5773 39.192 27.1813 39.1 26.8213 38.916C26.4693 38.732 26.1973 38.488 26.0053 38.184H25.9573L26.0053 39V41.592H24.9013V33.12H25.9573V33.936H26.0053C26.1973 33.632 26.4693 33.388 26.8213 33.204C27.1813 33.02 27.5773 32.928 28.0093 32.928C28.7853 32.928 29.4413 33.232 29.9773 33.84C30.5293 34.456 30.8053 35.196 30.8053 36.06C30.8053 36.932 30.5293 37.672 29.9773 38.28C29.4413 38.888 28.7853 39.192 28.0093 39.192ZM31.6993 30.408H32.8033V33.12L32.7553 33.936H32.8033C32.9713 33.648 33.2273 33.408 33.5713 33.216C33.9233 33.024 34.2873 32.928 34.6633 32.928C35.3833 32.928 35.9353 33.136 36.3193 33.552C36.7113 33.96 36.9073 34.544 36.9073 35.304V39H35.8033V35.52C35.8033 34.464 35.3353 33.936 34.3993 33.936C33.9513 33.936 33.5713 34.124 33.2593 34.5C32.9553 34.868 32.8033 35.3 32.8033 35.796V39H31.6993V30.408ZM37.8673 36.06C37.8673 35.156 38.1513 34.408 38.7193 33.816C39.2953 33.224 40.0193 32.928 40.8913 32.928C41.7633 32.928 42.4833 33.224 43.0513 33.816C43.6273 34.408 43.9153 35.156 43.9153 36.06C43.9153 36.972 43.6273 37.72 43.0513 38.304C42.4833 38.896 41.7633 39.192 40.8913 39.192C40.0193 39.192 39.2953 38.896 38.7193 38.304C38.1513 37.712 37.8673 36.964 37.8673 36.06ZM38.9713 36.06C38.9713 36.692 39.1553 37.204 39.5233 37.596C39.8913 37.988 40.3473 38.184 40.8913 38.184C41.4353 38.184 41.8913 37.988 42.2593 37.596C42.6273 37.204 42.8113 36.692 42.8113 36.06C42.8113 35.436 42.6273 34.928 42.2593 34.536C41.8833 34.136 41.4273 33.936 40.8913 33.936C40.3553 33.936 39.8993 34.136 39.5233 34.536C39.1553 34.928 38.9713 35.436 38.9713 36.06ZM47.0703 39.096C46.5903 39.096 46.1903 38.948 45.8703 38.652C45.5583 38.356 45.3983 37.944 45.3903 37.416V34.128H44.3583V33.12H45.3903V31.32H46.4943V33.12H47.9343V34.128H46.4943V37.056C46.4943 37.448 46.5703 37.716 46.7223 37.86C46.8743 37.996 47.0463 38.064 47.2383 38.064C47.3263 38.064 47.4103 38.056 47.4903 38.04C47.5783 38.016 47.6583 37.988 47.7303 37.956L48.0783 38.94C47.7903 39.044 47.4543 39.096 47.0703 39.096ZM48.5899 36.06C48.5899 35.156 48.8739 34.408 49.4419 33.816C50.0179 33.224 50.7419 32.928 51.6139 32.928C52.4859 32.928 53.2059 33.224 53.7739 33.816C54.3499 34.408 54.6379 35.156 54.6379 36.06C54.6379 36.972 54.3499 37.72 53.7739 38.304C53.2059 38.896 52.4859 39.192 51.6139 39.192C50.7419 39.192 50.0179 38.896 49.4419 38.304C48.8739 37.712 48.5899 36.964 48.5899 36.06ZM49.6939 36.06C49.6939 36.692 49.8779 37.204 50.2459 37.596C50.6139 37.988 51.0699 38.184 51.6139 38.184C52.1579 38.184 52.6139 37.988 52.9819 37.596C53.3499 37.204 53.5339 36.692 53.5339 36.06C53.5339 35.436 53.3499 34.928 52.9819 34.536C52.6059 34.136 52.1499 33.936 51.6139 33.936C51.0779 33.936 50.6219 34.136 50.2459 34.536C49.8779 34.928 49.6939 35.436 49.6939 36.06Z" fill="#78767D"/>
<path d="M27 12C25.9 12 24.9583 11.6083 24.175 10.825C23.3917 10.0417 23 9.1 23 8C23 6.9 23.3917 5.95833 24.175 5.175C24.9583 4.39167 25.9 4 27 4C28.1 4 29.0417 4.39167 29.825 5.175C30.6083 5.95833 31 6.9 31 8C31 9.1 30.6083 10.0417 29.825 10.825C29.0417 11.6083 28.1 12 27 12ZM19 20V17.2C19 16.6333 19.1458 16.1125 19.4375 15.6375C19.7292 15.1625 20.1167 14.8 20.6 14.55C21.6333 14.0333 22.6833 13.6458 23.75 13.3875C24.8167 13.1292 25.9 13 27 13C28.1 13 29.1833 13.1292 30.25 13.3875C31.3167 13.6458 32.3667 14.0333 33.4 14.55C33.8833 14.8 34.2708 15.1625 34.5625 15.6375C34.8542 16.1125 35 16.6333 35 17.2V20H19ZM21 18H33V17.2C33 17.0167 32.9542 16.85 32.8625 16.7C32.7708 16.55 32.65 16.4333 32.5 16.35C31.6 15.9 30.6917 15.5625 29.775 15.3375C28.8583 15.1125 27.9333 15 27 15C26.0667 15 25.1417 15.1125 24.225 15.3375C23.3083 15.5625 22.4 15.9 21.5 16.35C21.35 16.4333 21.2292 16.55 21.1375 16.7C21.0458 16.85 21 17.0167 21 17.2V18ZM27 10C27.55 10 28.0208 9.80417 28.4125 9.4125C28.8042 9.02083 29 8.55 29 8C29 7.45 28.8042 6.97917 28.4125 6.5875C28.0208 6.19583 27.55 6 27 6C26.45 6 25.9792 6.19583 25.5875 6.5875C25.1958 6.97917 25 7.45 25 8C25 8.55 25.1958 9.02083 25.5875 9.4125C25.9792 9.80417 26.45 10 27 10Z" fill="#78767D"/>
</svg>
